<svg xmlns="http://www.w3.org/2000/svg" xmlns:xlink="http://www.w3.org/1999/xlink" preserveAspectRatio="xMidYMid" width="500" height="500" viewBox="0 0 40 40">
  <defs>
    <style>
      .cls-1 {
        fill: #000;
        fill-rule: evenodd;
      }
    </style>
  </defs>
  <path d="M19.993,40.000 C8.944,40.000 -0.013,31.043 -0.013,19.993 C-0.013,8.944 8.944,-0.014 19.993,-0.014 C31.043,-0.014 40.000,8.944 40.000,19.993 C40.000,31.043 31.043,40.000 19.993,40.000 ZM19.994,2.001 C10.073,2.001 2.001,10.066 2.001,19.978 C2.001,29.891 10.073,37.995 19.994,37.995 C29.915,37.995 37.986,29.891 37.986,19.978 C37.986,10.066 29.915,2.001 19.994,2.001 ZM29.000,26.999 L11.000,26.999 C10.447,26.999 10.000,26.552 10.000,26.000 C10.000,25.447 10.447,24.999 11.000,24.999 L29.000,24.999 C29.552,24.999 30.000,25.447 30.000,26.000 C30.000,26.552 29.552,26.999 29.000,26.999 ZM29.000,20.999 L11.000,20.999 C10.447,20.999 10.000,20.552 10.000,20.000 C10.000,19.447 10.447,18.999 11.000,18.999 L29.000,18.999 C29.552,18.999 30.000,19.447 30.000,20.000 C30.000,20.552 29.552,20.999 29.000,20.999 ZM29.000,13.999 L11.000,13.999 C10.447,13.999 10.000,13.552 10.000,13.000 C10.000,12.447 10.447,11.999 11.000,11.999 L29.000,11.999 C29.552,11.999 30.000,12.447 30.000,13.000 C30.000,13.552 29.552,13.999 29.000,13.999 Z" class="cls-1"/>
</svg>
